<?xml version="1.0" encoding="UTF-8" standalone="no"?>
<svg
   xmlns:dc="http://purl.org/dc/elements/1.1/"
   xmlns:cc="http://creativecommons.org/ns#"
   xmlns:rdf="http://www.w3.org/1999/02/22-rdf-syntax-ns#"
   xmlns:svg="http://www.w3.org/2000/svg"
   xmlns="http://www.w3.org/2000/svg"
   xmlns:sodipodi="http://sodipodi.sourceforge.net/DTD/sodipodi-0.dtd"
   xmlns:inkscape="http://www.inkscape.org/namespaces/inkscape"
   viewBox="0 0 303.81279 607.00625"
   version="1.1"
   x="0px"
   y="0px"
   id="svg3390"
   inkscape:version="0.91 r13725"
   sodipodi:docname="noun_945294_cc.svg">
  <metadata
     id="metadata3404">
    <rdf:RDF>
      <cc:Work
         rdf:about="">
        <dc:format>image/svg+xml</dc:format>
        <dc:type
           rdf:resource="http://purl.org/dc/dcmitype/StillImage" />
      </cc:Work>
    </rdf:RDF>
  </metadata>
  <defs
     id="defs3402" />
  <sodipodi:namedview
     pagecolor="#ffffff"
     bordercolor="#666666"
     borderopacity="1"
     objecttolerance="10"
     gridtolerance="10"
     guidetolerance="10"
     inkscape:pageopacity="0"
     inkscape:pageshadow="2"
     inkscape:window-width="1920"
     inkscape:window-height="1174"
     id="namedview3400"
     showgrid="false"
     inkscape:zoom="3.2026031"
     inkscape:cx="106.47461"
     inkscape:cy="228.56407"
     inkscape:window-x="0"
     inkscape:window-y="0"
     inkscape:window-maximized="1"
     inkscape:current-layer="svg3390" />
  <g
     transform="translate(-292.81803,-242.65205)"
     id="g3392"
     style="fill:#bb54f0;fill-opacity:1">
    <path
       style="fill:#bb54f0;fill-opacity:1"
       d="m 551.56383,242.65205 c -1.8854,0 -3.7494,0.7547 -5.1782,2.1838 l -34.4671,34.4673 c -2.4424,-1.1192 -5.0717,-1.8594 -7.9293,-1.8594 -5.6749,0 -10.7182,2.6178 -14.2405,6.554 -13.0069,-8.3678 -28.4539,-13.2691 -45.0655,-13.2691 -16.9427,0 -32.7019,5.0554 -45.8751,13.7547 -3.522,-4.2253 -8.6395,-7.0396 -14.5634,-7.0396 -2.6105,0 -5.0842,0.5833 -7.3629,1.5387 l -34.0619,-34.1436 c -2.8584,-2.8584 -7.5792,-2.8584 -10.4376,0 -2.8183,2.8584 -2.8183,7.4983 0,10.3563 l 34.1435,34.1435 c -0.9115,2.2787 -1.4584,4.7528 -1.4584,7.3626 0,6.2554 3.2049,11.5694 7.8479,15.0491 -7.4151,12.4691 -11.7315,26.9424 -11.7315,42.477 0,46.1062 167.0759,46.1062 167.0759,0 0,-15.783 -4.4331,-30.4502 -12.056,-43.0433 4.1846,-3.522 6.9582,-8.6813 6.9582,-14.5637 0,-2.3188 -0.6304,-4.4823 -1.3744,-6.5536 l 34.9532,-34.8716 c 2.8576,-2.8584 2.8576,-7.5391 0,-10.3563 -1.4299,-1.4292 -3.2928,-2.1839 -5.1781,-2.1839 z m -149.1148,73.2221 84.4681,0 c 7.7058,0 13.9165,6.2528 13.9165,13.9162 0,7.7054 -6.2107,13.8354 -13.9165,13.8354 l -84.4681,0 c -7.6634,0 -13.8354,-6.1716 -13.8354,-13.8354 0,-7.6634 6.172,-13.9162 13.8354,-13.9162 z m -6.3105,70.9567 c 2.3189,8.0363 6.5416,15.2764 12.2169,21.1169 l -10.0325,0 c -36.62,0 -59.4924,49.2392 -41.1825,88.6759 l 46.3604,99.9218 c 18.31,39.4367 64.136,39.4367 82.4453,0 l 46.361,-99.9218 c 18.3104,-39.4367 -4.5631,-88.6759 -41.1828,-88.6759 l -10.0323,0 c 5.6335,-5.8405 9.9388,-13.0806 12.2168,-21.1169 -14.5398,3.977 -31.6,5.7445 -48.6256,5.7445 -17.7715,0 -34.5847,-2.0599 -48.5447,-5.7445 z m -41.668,22.1691 c -19.5113,0 -35.2763,15.7647 -35.2763,35.276 0,8.6576 3.1938,16.4009 8.4954,22.5735 l -21.6835,52.4283 c -7.4979,1.9068 -13.1881,8.5501 -13.1881,16.5864 0,6.2969 3.4855,11.5788 8.4955,14.6443 l 0,46.1989 c -2.071,2.2386 -3.3981,5.1418 -3.3981,8.4144 0,6.9178 5.6647,12.5406 12.5413,12.5406 6.9178,0 12.5406,-5.6228 12.5406,-12.5406 0,-3.4781 -1.4839,-6.6213 -3.8031,-8.8997 l 0,-45.7136 c 5.0125,-3.0662 8.5767,-8.3474 8.5767,-14.6443 0,-1.9067 -0.4303,-3.8814 -1.1302,-5.6636 l 21.3601,-51.4576 c -2.8183,-17.5229 0.5469,-35.9031 9.9516,-50.5679 3.8527,-6.0067 8.3747,-10.7897 13.5114,-14.7251 -4.9708,-2.7747 -10.8593,-4.45 -16.9903,-4.45 z m 180.5877,0 c -6.1729,0 -12.1009,1.5933 -17.0721,4.3686 5.1368,3.977 9.6585,8.7998 13.512,14.8065 9.403,14.5405 12.768,33.0056 9.9518,50.4868 l 21.4401,51.4578 c -0.7464,1.7828 -1.1331,3.7571 -1.1331,5.6636 0,6.2966 3.5258,11.5792 8.4946,14.6447 l 0,45.6318 c -2.4022,2.2787 -3.9635,5.4186 -3.9635,8.9811 0,6.9182 5.6229,12.5406 12.541,12.5406 6.8754,0 12.5409,-5.6224 12.5409,-12.5406 0,-3.15 -1.2881,-5.9764 -3.2349,-8.172 l 0,-46.4409 c 4.9298,-3.0261 8.4958,-8.3481 8.4958,-14.6447 0,-8.078 -5.7317,-14.6808 -13.1879,-16.5864 l -21.6825,-52.3474 c 5.261,-6.1726 8.4947,-13.9964 8.4947,-22.6549 0,-19.5112 -15.6836,-35.1946 -35.1945,-35.1946 z m -113.6766,42.5577 46.5225,0 c 11.1015,0 19.1207,10.3898 16.2631,21.0359 l -7.7672,28.8847 c -1.9871,7.2908 -8.6828,12.3791 -16.2631,12.3791 l -30.9074,0 c -7.6223,0 -14.1929,-5.0883 -16.1814,-12.3791 l -7.8479,-28.8847 c -2.8584,-10.6461 5.1623,-21.0359 16.1814,-21.0359 z m -44.3376,96.6852 c -9.4036,5.5925 -15.6965,15.9044 -15.6965,27.7518 0,11.4337 5.9039,21.4688 14.6447,27.1853 l 0,81.7173 c -6.131,4.3911 -10.1135,11.4216 -10.1135,19.4992 0,13.0484 10.5725,23.7869 23.7873,23.7869 13.0487,0 23.7058,-10.7378 23.7058,-23.7869 0.037,-8.0776 -4.0266,-15.1081 -10.0329,-19.4992 l 0,-77.7527 c 0.6199,-0.1823 1.1595,-0.4375 1.7829,-0.7292 -1.9069,-2.5266 -3.5293,-5.4729 -4.8542,-8.4141 l -23.2211,-49.7591 z m 135.279,0.073 -23.1397,49.7587 c -1.327,2.9423 -2.9498,5.8481 -4.8552,8.3336 0.5795,0.2916 1.12,0.5614 1.6996,0.7292 l 0,77.8335 c -6.0073,4.3908 -10.1139,11.4213 -10.1139,19.4992 0,13.0489 10.7384,23.787 23.7879,23.787 13.1725,0 23.7855,-10.7381 23.7855,-23.787 0,-8.0779 -3.9386,-15.1084 -10.1127,-19.4992 l 0,-81.7982 c 8.8649,-5.7579 14.6439,-15.7519 14.6439,-27.1852 0,-11.8891 -6.2924,-22.1196 -15.6966,-27.6706 z"
       fill="#000000"
       id="path3394" />
  </g>
</svg>
